<mxfile host="app.diagrams.net" modified="2021-10-15T07:38:03.995Z" agent="5.0 (Macintosh; Intel Mac OS X 10_15_7) AppleWebKit/537.36 (KHTML, like Gecko) Chrome/94.0.4606.81 Safari/537.36" etag="tqAxsg4fGkQbkE4EhNbh" version="15.5.0" type="github" pages="4">
  <diagram id="4o21e-eSgI8UkRNtZB3F" name="APP转化数据流">
    <mxGraphModel dx="1595" dy="1969" grid="1" gridSize="10" guides="1" tooltips="1" connect="1" arrows="1" fold="1" page="1" pageScale="1" pageWidth="827" pageHeight="1169" math="0" shadow="0">
      <root>
        <mxCell id="0" />
        <mxCell id="1" parent="0" />
        <mxCell id="9EboDebHBBUFKv4gu6tB-3" style="edgeStyle=orthogonalEdgeStyle;rounded=0;orthogonalLoop=1;jettySize=auto;html=1;exitX=1;exitY=0.5;exitDx=0;exitDy=0;entryX=0;entryY=0.5;entryDx=0;entryDy=0;entryPerimeter=0;dashed=1;" parent="1" source="QW-dAD9UyNd5gf5BNb-T-19" target="9EboDebHBBUFKv4gu6tB-1" edge="1">
          <mxGeometry relative="1" as="geometry" />
        </mxCell>
        <mxCell id="9EboDebHBBUFKv4gu6tB-4" value="更新缓存的时候且&lt;br&gt;第一次这个转化跟踪有数据更新转化跟踪为激活状态&lt;br&gt;com.xiaomi.miui.ad.cache.ConversionsCache.SecretKeyCacheLoader" style="edgeLabel;html=1;align=center;verticalAlign=middle;resizable=0;points=[];" parent="9EboDebHBBUFKv4gu6tB-3" vertex="1" connectable="0">
          <mxGeometry x="0.2754" y="1" relative="1" as="geometry">
            <mxPoint x="-36" y="-28" as="offset" />
          </mxGeometry>
        </mxCell>
        <mxCell id="sCTguvB0skkFPT9_5cat-2" style="edgeStyle=orthogonalEdgeStyle;rounded=0;orthogonalLoop=1;jettySize=auto;html=1;exitX=1;exitY=0.5;exitDx=0;exitDy=0;entryX=0;entryY=0;entryDx=0;entryDy=27.5;entryPerimeter=0;" parent="1" source="SWPEwqexWxuaSi2la6Ps-1" target="sCTguvB0skkFPT9_5cat-1" edge="1">
          <mxGeometry relative="1" as="geometry" />
        </mxCell>
        <mxCell id="sCTguvB0skkFPT9_5cat-3" value="插入一条成功记录" style="edgeLabel;html=1;align=center;verticalAlign=middle;resizable=0;points=[];" parent="sCTguvB0skkFPT9_5cat-2" vertex="1" connectable="0">
          <mxGeometry x="0.7781" y="-3" relative="1" as="geometry">
            <mxPoint x="-40" y="60" as="offset" />
          </mxGeometry>
        </mxCell>
        <mxCell id="QW-dAD9UyNd5gf5BNb-T-31" style="edgeStyle=orthogonalEdgeStyle;rounded=0;jumpStyle=none;orthogonalLoop=1;jettySize=auto;html=1;shadow=0;" parent="1" source="SWPEwqexWxuaSi2la6Ps-1" edge="1">
          <mxGeometry relative="1" as="geometry">
            <mxPoint x="390" y="630" as="targetPoint" />
          </mxGeometry>
        </mxCell>
        <mxCell id="zyRVlmTpXBP2RAwQJaIe-1" style="edgeStyle=orthogonalEdgeStyle;rounded=0;jumpStyle=arc;orthogonalLoop=1;jettySize=auto;html=1;entryX=0;entryY=0.5;entryDx=0;entryDy=0;shadow=0;" parent="1" source="SWPEwqexWxuaSi2la6Ps-1" target="SWPEwqexWxuaSi2la6Ps-15" edge="1">
          <mxGeometry relative="1" as="geometry" />
        </mxCell>
        <mxCell id="SWPEwqexWxuaSi2la6Ps-1" value="Trail-service&lt;br&gt;/api/callback" style="rounded=1;whiteSpace=wrap;html=1;fillColor=#ffe6cc;strokeColor=#d79b00;" parent="1" vertex="1">
          <mxGeometry x="160" y="600" width="120" height="60" as="geometry" />
        </mxCell>
        <mxCell id="QW-dAD9UyNd5gf5BNb-T-16" style="edgeStyle=orthogonalEdgeStyle;rounded=0;jumpStyle=none;orthogonalLoop=1;jettySize=auto;html=1;shadow=0;" parent="1" source="SWPEwqexWxuaSi2la6Ps-7" target="QW-dAD9UyNd5gf5BNb-T-15" edge="1">
          <mxGeometry relative="1" as="geometry" />
        </mxCell>
        <mxCell id="SWPEwqexWxuaSi2la6Ps-7" value="Doris&lt;br&gt;(ad_emi_conversion_data_rt&lt;br&gt;ad_emi_conversion_data)&lt;br&gt;" style="shape=cylinder3;whiteSpace=wrap;html=1;boundedLbl=1;backgroundOutline=1;size=15;fillColor=#ffe6cc;strokeColor=#d79b00;" parent="1" vertex="1">
          <mxGeometry x="1580" y="450" width="60" height="80" as="geometry" />
        </mxCell>
        <mxCell id="j96rgMlCacX8J4bts-G6-2" style="edgeStyle=orthogonalEdgeStyle;rounded=0;orthogonalLoop=1;jettySize=auto;html=1;exitX=1;exitY=0.5;exitDx=0;exitDy=0;entryX=0;entryY=0.5;entryDx=0;entryDy=0;" parent="1" source="SWPEwqexWxuaSi2la6Ps-11" target="j96rgMlCacX8J4bts-G6-1" edge="1">
          <mxGeometry relative="1" as="geometry" />
        </mxCell>
        <mxCell id="QW-dAD9UyNd5gf5BNb-T-2" style="edgeStyle=orthogonalEdgeStyle;rounded=0;orthogonalLoop=1;jettySize=auto;html=1;shadow=0;jumpStyle=none;dashed=1;" parent="1" source="SWPEwqexWxuaSi2la6Ps-20" target="QW-dAD9UyNd5gf5BNb-T-35" edge="1">
          <mxGeometry relative="1" as="geometry" />
        </mxCell>
        <mxCell id="QW-dAD9UyNd5gf5BNb-T-3" value="&lt;pre style=&quot;font-size: 9pt ; text-align: left ; background-color: rgb(253 , 246 , 227) ; color: rgb(101 , 123 , 131) ; font-family: &amp;#34;menlo&amp;#34; , monospace&quot;&gt;&lt;br&gt;&lt;/pre&gt;" style="edgeLabel;html=1;align=center;verticalAlign=middle;resizable=0;points=[];" parent="QW-dAD9UyNd5gf5BNb-T-2" vertex="1" connectable="0">
          <mxGeometry x="-0.0136" y="-2" relative="1" as="geometry">
            <mxPoint x="12" y="58" as="offset" />
          </mxGeometry>
        </mxCell>
        <mxCell id="QW-dAD9UyNd5gf5BNb-T-48" style="edgeStyle=orthogonalEdgeStyle;rounded=0;jumpStyle=arc;orthogonalLoop=1;jettySize=auto;html=1;exitX=0.5;exitY=1;exitDx=0;exitDy=0;entryX=0;entryY=0.5;entryDx=0;entryDy=0;shadow=0;dashed=1;" parent="1" source="SWPEwqexWxuaSi2la6Ps-20" target="QW-dAD9UyNd5gf5BNb-T-45" edge="1">
          <mxGeometry relative="1" as="geometry" />
        </mxCell>
        <mxCell id="SWPEwqexWxuaSi2la6Ps-20" value="&lt;span style=&quot;color: rgb(0 , 0 , 0) ; font-family: &amp;#34;helvetica&amp;#34; ; font-size: 12px ; font-style: normal ; font-weight: 400 ; letter-spacing: normal ; text-align: center ; text-indent: 0px ; text-transform: none ; word-spacing: 0px ; background-color: rgb(248 , 249 , 250) ; display: inline ; float: none&quot;&gt;Kafka&lt;/span&gt;&lt;br style=&quot;color: rgb(0 , 0 , 0) ; font-family: &amp;#34;helvetica&amp;#34; ; font-size: 12px ; font-style: normal ; font-weight: 400 ; letter-spacing: normal ; text-align: center ; text-indent: 0px ; text-transform: none ; word-spacing: 0px ; background-color: rgb(248 , 249 , 250)&quot;&gt;&lt;span style=&quot;color: rgb(0 , 0 , 0) ; font-family: &amp;#34;helvetica&amp;#34; ; font-size: 12px ; font-style: normal ; font-weight: 400 ; letter-spacing: normal ; text-align: center ; text-indent: 0px ; text-transform: none ; word-spacing: 0px ; background-color: rgb(248 , 249 , 250) ; display: inline ; float: none&quot;&gt;(CONVERSION_ATTRIBUTION_RESULT)&lt;br&gt;归因结果&lt;br&gt;&lt;/span&gt;" style="rounded=1;whiteSpace=wrap;html=1;fillColor=#ffe6cc;strokeColor=#d79b00;" parent="1" vertex="1">
          <mxGeometry x="890" y="380" width="120" height="60" as="geometry" />
        </mxCell>
        <mxCell id="Lbf4anZ4mkdeLENvVJDo-1" value="APi统计" style="text;html=1;align=center;verticalAlign=middle;resizable=0;points=[];autosize=1;strokeColor=#666666;fillColor=#f5f5f5;fontColor=#333333;" parent="1" vertex="1">
          <mxGeometry y="560" width="60" height="20" as="geometry" />
        </mxCell>
        <mxCell id="Lbf4anZ4mkdeLENvVJDo-4" value="点击外发" style="text;html=1;align=center;verticalAlign=middle;resizable=0;points=[];autosize=1;fillColor=#e1d5e7;strokeColor=#9673a6;" parent="1" vertex="1">
          <mxGeometry x="20" y="-180" width="60" height="20" as="geometry" />
        </mxCell>
        <mxCell id="Lbf4anZ4mkdeLENvVJDo-9" value="" style="edgeStyle=orthogonalEdgeStyle;rounded=0;orthogonalLoop=1;jettySize=auto;html=1;" parent="1" source="Lbf4anZ4mkdeLENvVJDo-7" target="Lbf4anZ4mkdeLENvVJDo-8" edge="1">
          <mxGeometry relative="1" as="geometry" />
        </mxCell>
        <mxCell id="Lbf4anZ4mkdeLENvVJDo-7" value="&lt;span&gt;广告用户客户端SDK&lt;/span&gt;" style="rounded=1;whiteSpace=wrap;html=1;fillColor=#dae8fc;strokeColor=#6c8ebf;" parent="1" vertex="1">
          <mxGeometry x="20" y="-120" width="120" height="60" as="geometry" />
        </mxCell>
        <mxCell id="Lbf4anZ4mkdeLENvVJDo-15" value="" style="edgeStyle=orthogonalEdgeStyle;rounded=0;orthogonalLoop=1;jettySize=auto;html=1;" parent="1" source="Lbf4anZ4mkdeLENvVJDo-8" target="Lbf4anZ4mkdeLENvVJDo-14" edge="1">
          <mxGeometry relative="1" as="geometry" />
        </mxCell>
        <mxCell id="Lbf4anZ4mkdeLENvVJDo-8" value="Event-Cook&lt;br&gt;(对原始打点事件etl)" style="whiteSpace=wrap;html=1;rounded=1;fillColor=#dae8fc;strokeColor=#6c8ebf;" parent="1" vertex="1">
          <mxGeometry x="180" y="-120" width="120" height="60" as="geometry" />
        </mxCell>
        <mxCell id="Lbf4anZ4mkdeLENvVJDo-17" value="" style="edgeStyle=orthogonalEdgeStyle;rounded=0;orthogonalLoop=1;jettySize=auto;html=1;dashed=1;" parent="1" source="Lbf4anZ4mkdeLENvVJDo-14" target="Lbf4anZ4mkdeLENvVJDo-16" edge="1">
          <mxGeometry relative="1" as="geometry" />
        </mxCell>
        <mxCell id="Lbf4anZ4mkdeLENvVJDo-14" value="AD_EVENT_BILLING&lt;br&gt;(Talos)" style="shape=cylinder;whiteSpace=wrap;html=1;boundedLbl=1;backgroundOutline=1;rounded=1;strokeColor=#d79b00;fillColor=#ffe6cc;direction=south;" parent="1" vertex="1">
          <mxGeometry x="350" y="-120" width="110" height="60" as="geometry" />
        </mxCell>
        <mxCell id="Lbf4anZ4mkdeLENvVJDo-19" value="" style="edgeStyle=orthogonalEdgeStyle;rounded=0;orthogonalLoop=1;jettySize=auto;html=1;" parent="1" source="Lbf4anZ4mkdeLENvVJDo-16" target="Lbf4anZ4mkdeLENvVJDo-18" edge="1">
          <mxGeometry relative="1" as="geometry">
            <Array as="points">
              <mxPoint x="740" y="-90" />
              <mxPoint x="740" y="50" />
            </Array>
          </mxGeometry>
        </mxCell>
        <mxCell id="Lbf4anZ4mkdeLENvVJDo-22" value="同步写 lcs talos 导入hive" style="edgeLabel;html=1;align=center;verticalAlign=middle;resizable=0;points=[];" parent="Lbf4anZ4mkdeLENvVJDo-19" vertex="1" connectable="0">
          <mxGeometry x="0.6796" y="1" relative="1" as="geometry">
            <mxPoint x="-31" as="offset" />
          </mxGeometry>
        </mxCell>
        <mxCell id="Lbf4anZ4mkdeLENvVJDo-36" style="edgeStyle=orthogonalEdgeStyle;rounded=0;orthogonalLoop=1;jettySize=auto;html=1;entryX=0;entryY=0.5;entryDx=0;entryDy=0;dashed=1;" parent="1" source="Lbf4anZ4mkdeLENvVJDo-16" target="Lbf4anZ4mkdeLENvVJDo-35" edge="1">
          <mxGeometry relative="1" as="geometry">
            <Array as="points">
              <mxPoint x="740" y="-90" />
              <mxPoint x="740" y="-250" />
            </Array>
          </mxGeometry>
        </mxCell>
        <mxCell id="Lbf4anZ4mkdeLENvVJDo-37" value="线程池异步发送" style="edgeLabel;html=1;align=center;verticalAlign=middle;resizable=0;points=[];" parent="Lbf4anZ4mkdeLENvVJDo-36" vertex="1" connectable="0">
          <mxGeometry x="0.7511" y="-3" relative="1" as="geometry">
            <mxPoint x="-16" y="-3" as="offset" />
          </mxGeometry>
        </mxCell>
        <mxCell id="Lbf4anZ4mkdeLENvVJDo-49" value="&lt;meta charset=&quot;utf-8&quot;&gt;&lt;span style=&quot;color: rgb(0, 0, 0); font-family: helvetica; font-size: 11px; font-style: normal; font-weight: 400; letter-spacing: normal; text-align: center; text-indent: 0px; text-transform: none; word-spacing: 0px; background-color: rgb(255, 255, 255); display: inline; float: none;&quot;&gt;线程池异步发送&lt;/span&gt;" style="edgeStyle=orthogonalEdgeStyle;rounded=0;orthogonalLoop=1;jettySize=auto;html=1;entryX=0;entryY=0.5;entryDx=0;entryDy=0;dashed=1;" parent="1" source="Lbf4anZ4mkdeLENvVJDo-16" target="Lbf4anZ4mkdeLENvVJDo-48" edge="1">
          <mxGeometry x="0.2821" y="10" relative="1" as="geometry">
            <mxPoint as="offset" />
          </mxGeometry>
        </mxCell>
        <mxCell id="Lbf4anZ4mkdeLENvVJDo-16" value="OcpxClickAnalyticTalosConsumer&lt;br&gt;(emi-consumer)Talos消费者" style="whiteSpace=wrap;html=1;rounded=1;strokeColor=#d79b00;fillColor=#ffe6cc;" parent="1" vertex="1">
          <mxGeometry x="535" y="-120" width="120" height="60" as="geometry" />
        </mxCell>
        <mxCell id="Lbf4anZ4mkdeLENvVJDo-18" value="&lt;pre style=&quot;background-color: #fdf6e3 ; color: #657b83 ; font-family: &amp;#34;menlo&amp;#34; , monospace ; font-size: 9.0pt&quot;&gt;&lt;span style=&quot;color: #2aa198&quot;&gt;ocpx_upload_actionlog_origin&lt;br&gt;(hive)&lt;/span&gt;&lt;/pre&gt;" style="shape=cylinder;whiteSpace=wrap;html=1;boundedLbl=1;backgroundOutline=1;rounded=1;strokeColor=#d79b00;fillColor=#ffe6cc;" parent="1" vertex="1">
          <mxGeometry x="880" y="40" width="60" height="80" as="geometry" />
        </mxCell>
        <mxCell id="Lbf4anZ4mkdeLENvVJDo-21" value="广告主feedback服务&lt;br&gt;(发送点击下载事件)" style="rounded=0;whiteSpace=wrap;html=1;fillColor=#d5e8d4;strokeColor=#82b366;" parent="1" vertex="1">
          <mxGeometry x="1050" y="-370" width="120" height="60" as="geometry" />
        </mxCell>
        <mxCell id="Lbf4anZ4mkdeLENvVJDo-32" value="" style="edgeStyle=orthogonalEdgeStyle;rounded=0;orthogonalLoop=1;jettySize=auto;html=1;" parent="1" source="Lbf4anZ4mkdeLENvVJDo-27" edge="1">
          <mxGeometry relative="1" as="geometry">
            <mxPoint x="1270" y="-250" as="targetPoint" />
          </mxGeometry>
        </mxCell>
        <mxCell id="Lbf4anZ4mkdeLENvVJDo-27" value="&lt;pre style=&quot;font-size: 9pt ; text-align: left ; background-color: rgb(253 , 246 , 227) ; color: rgb(101 , 123 , 131) ; font-family: &amp;#34;menlo&amp;#34; , monospace&quot;&gt;&lt;span style=&quot;color: rgb(38 , 139 , 210) ; font-style: italic&quot;&gt;CONVERSION_TRAIL_EVENT&lt;br&gt;(kafka) 点击下载事件&lt;/span&gt;&lt;/pre&gt;" style="shape=cylinder;whiteSpace=wrap;html=1;boundedLbl=1;backgroundOutline=1;rounded=1;strokeColor=#d79b00;fillColor=#ffe6cc;direction=south;" parent="1" vertex="1">
          <mxGeometry x="1050" y="-280" width="110" height="60" as="geometry" />
        </mxCell>
        <mxCell id="Lbf4anZ4mkdeLENvVJDo-38" style="edgeStyle=orthogonalEdgeStyle;rounded=0;orthogonalLoop=1;jettySize=auto;html=1;exitX=1;exitY=0.5;exitDx=0;exitDy=0;entryX=0;entryY=0.5;entryDx=0;entryDy=0;" parent="1" source="Lbf4anZ4mkdeLENvVJDo-35" target="Lbf4anZ4mkdeLENvVJDo-21" edge="1">
          <mxGeometry relative="1" as="geometry" />
        </mxCell>
        <mxCell id="Lbf4anZ4mkdeLENvVJDo-39" style="edgeStyle=orthogonalEdgeStyle;rounded=0;orthogonalLoop=1;jettySize=auto;html=1;entryX=0.5;entryY=1;entryDx=0;entryDy=0;" parent="1" source="Lbf4anZ4mkdeLENvVJDo-35" target="Lbf4anZ4mkdeLENvVJDo-27" edge="1">
          <mxGeometry relative="1" as="geometry" />
        </mxCell>
        <mxCell id="Lbf4anZ4mkdeLENvVJDo-40" style="edgeStyle=orthogonalEdgeStyle;rounded=0;orthogonalLoop=1;jettySize=auto;html=1;entryX=0;entryY=0.3;entryDx=0;entryDy=0;" parent="1" source="Lbf4anZ4mkdeLENvVJDo-35" target="Lbf4anZ4mkdeLENvVJDo-41" edge="1">
          <mxGeometry relative="1" as="geometry">
            <mxPoint x="1010" y="-100" as="targetPoint" />
          </mxGeometry>
        </mxCell>
        <mxCell id="Lbf4anZ4mkdeLENvVJDo-43" style="edgeStyle=orthogonalEdgeStyle;rounded=0;orthogonalLoop=1;jettySize=auto;html=1;entryX=0;entryY=0.3;entryDx=0;entryDy=0;" parent="1" source="Lbf4anZ4mkdeLENvVJDo-35" target="Lbf4anZ4mkdeLENvVJDo-42" edge="1">
          <mxGeometry relative="1" as="geometry" />
        </mxCell>
        <mxCell id="Lbf4anZ4mkdeLENvVJDo-35" value="&lt;pre style=&quot;font-size: 9pt ; text-align: left ; background-color: rgb(253 , 246 , 227) ; color: rgb(101 , 123 , 131) ; font-family: &amp;#34;menlo&amp;#34; , monospace&quot;&gt;&lt;span style=&quot;color: rgb(181 , 137 , 0)&quot;&gt;OcpxEventUploader&lt;br/&gt;(线程池事件发送任务)&lt;/span&gt;&lt;/pre&gt;" style="whiteSpace=wrap;html=1;rounded=1;strokeColor=#d79b00;fillColor=#ffe6cc;" parent="1" vertex="1">
          <mxGeometry x="850" y="-280" width="120" height="60" as="geometry" />
        </mxCell>
        <mxCell id="Lbf4anZ4mkdeLENvVJDo-41" value="&lt;span style=&quot;color: rgb(23 , 43 , 77) ; font-family: , , &amp;#34;segoe ui&amp;#34; , &amp;#34;roboto&amp;#34; , &amp;#34;oxygen&amp;#34; , &amp;#34;ubuntu&amp;#34; , &amp;#34;fira sans&amp;#34; , &amp;#34;droid sans&amp;#34; , &amp;#34;helvetica neue&amp;#34; , sans-serif ; font-size: 14px ; background-color: rgb(255 , 255 , 255)&quot;&gt;ocpx_upload_data&lt;br&gt;(hive&lt;/span&gt;&lt;span style=&quot;color: rgb(23 , 43 , 77) ; font-family: , , &amp;#34;segoe ui&amp;#34; , &amp;#34;roboto&amp;#34; , &amp;#34;oxygen&amp;#34; , &amp;#34;ubuntu&amp;#34; , &amp;#34;fira sans&amp;#34; , &amp;#34;droid sans&amp;#34; , &amp;#34;helvetica neue&amp;#34; , sans-serif ; font-size: 14px ; background-color: rgb(255 , 255 , 255)&quot;&gt;)&lt;br&gt;&lt;/span&gt;" style="shape=cylinder;whiteSpace=wrap;html=1;boundedLbl=1;backgroundOutline=1;rounded=1;strokeColor=#d79b00;fillColor=#ffe6cc;" parent="1" vertex="1">
          <mxGeometry x="1050" y="-70" width="60" height="80" as="geometry" />
        </mxCell>
        <mxCell id="Lbf4anZ4mkdeLENvVJDo-42" value="&lt;span style=&quot;color: rgb(23 , 43 , 77) ; font-family: , , &amp;#34;segoe ui&amp;#34; , &amp;#34;roboto&amp;#34; , &amp;#34;oxygen&amp;#34; , &amp;#34;ubuntu&amp;#34; , &amp;#34;fira sans&amp;#34; , &amp;#34;droid sans&amp;#34; , &amp;#34;helvetica neue&amp;#34; , sans-serif ; font-size: 14px ; background-color: rgb(255 , 255 , 255)&quot;&gt;ocpx_upload_data_actionlog&lt;/span&gt;&lt;span style=&quot;color: rgb(23 , 43 , 77) ; font-family: , , &amp;#34;segoe ui&amp;#34; , &amp;#34;roboto&amp;#34; , &amp;#34;oxygen&amp;#34; , &amp;#34;ubuntu&amp;#34; , &amp;#34;fira sans&amp;#34; , &amp;#34;droid sans&amp;#34; , &amp;#34;helvetica neue&amp;#34; , sans-serif ; font-size: 14px ; background-color: rgb(255 , 255 , 255)&quot;&gt;&lt;br&gt;(hive&lt;/span&gt;&lt;span style=&quot;color: rgb(23 , 43 , 77) ; font-family: , , &amp;#34;segoe ui&amp;#34; , &amp;#34;roboto&amp;#34; , &amp;#34;oxygen&amp;#34; , &amp;#34;ubuntu&amp;#34; , &amp;#34;fira sans&amp;#34; , &amp;#34;droid sans&amp;#34; , &amp;#34;helvetica neue&amp;#34; , sans-serif ; font-size: 14px ; background-color: rgb(255 , 255 , 255)&quot;&gt;&amp;nbsp;&lt;/span&gt;&lt;span style=&quot;color: rgb(23 , 43 , 77) ; font-family: , , &amp;#34;segoe ui&amp;#34; , &amp;#34;roboto&amp;#34; , &amp;#34;oxygen&amp;#34; , &amp;#34;ubuntu&amp;#34; , &amp;#34;fira sans&amp;#34; , &amp;#34;droid sans&amp;#34; , &amp;#34;helvetica neue&amp;#34; , sans-serif ; font-size: 14px ; background-color: rgb(255 , 255 , 255)&quot;&gt;)&lt;br&gt;&lt;/span&gt;" style="shape=cylinder;whiteSpace=wrap;html=1;boundedLbl=1;backgroundOutline=1;rounded=1;strokeColor=#d79b00;fillColor=#ffe6cc;" parent="1" vertex="1">
          <mxGeometry x="1050" y="-180" width="60" height="80" as="geometry" />
        </mxCell>
        <mxCell id="Lbf4anZ4mkdeLENvVJDo-44" value="&lt;meta charset=&quot;utf-8&quot;&gt;&lt;span style=&quot;color: rgb(23, 43, 77); font-family: helvetica; font-size: 14px; font-style: normal; font-weight: 400; letter-spacing: normal; text-align: center; text-indent: 0px; text-transform: none; word-spacing: 0px; background-color: rgb(255, 255, 255); display: inline; float: none;&quot;&gt;ocpx外发点击下载数据使用的actionLog&lt;/span&gt;" style="text;whiteSpace=wrap;html=1;" parent="1" vertex="1">
          <mxGeometry x="1030" y="-200" width="270" height="30" as="geometry" />
        </mxCell>
        <mxCell id="Lbf4anZ4mkdeLENvVJDo-45" value="&lt;meta charset=&quot;utf-8&quot;&gt;&lt;span style=&quot;color: rgb(23, 43, 77); font-family: helvetica; font-size: 14px; font-style: normal; font-weight: 400; letter-spacing: normal; text-align: center; text-indent: 0px; text-transform: none; word-spacing: 0px; background-color: rgb(255, 255, 255); display: inline; float: none;&quot;&gt;ocpx外发点击/下载&lt;/span&gt;" style="text;whiteSpace=wrap;html=1;" parent="1" vertex="1">
          <mxGeometry x="1040" y="-90" width="140" height="30" as="geometry" />
        </mxCell>
        <mxCell id="Lbf4anZ4mkdeLENvVJDo-46" value="&lt;meta charset=&quot;utf-8&quot;&gt;&lt;pre style=&quot;font-size: 9pt ; font-style: normal ; font-weight: 400 ; letter-spacing: normal ; text-align: center ; text-indent: 0px ; text-transform: none ; word-spacing: 0px ; background-color: rgb(253 , 246 , 227) ; color: rgb(101 , 123 , 131) ; font-family: &amp;quot;menlo&amp;quot; , monospace&quot;&gt;&lt;span style=&quot;color: rgb(42 , 161 , 152)&quot;&gt;原始事件数据&lt;/span&gt;&lt;/pre&gt;" style="text;whiteSpace=wrap;html=1;" parent="1" vertex="1">
          <mxGeometry x="870" width="100" height="50" as="geometry" />
        </mxCell>
        <mxCell id="Lbf4anZ4mkdeLENvVJDo-47" value="&lt;pre style=&quot;background-color: #fdf6e3 ; color: #657b83 ; font-family: &amp;#34;menlo&amp;#34; , monospace ; font-size: 9.0pt&quot;&gt;&lt;br&gt;&lt;/pre&gt;" style="text;whiteSpace=wrap;html=1;" parent="1" vertex="1">
          <mxGeometry x="860" y="-110" width="190" height="50" as="geometry" />
        </mxCell>
        <mxCell id="Lbf4anZ4mkdeLENvVJDo-53" style="edgeStyle=orthogonalEdgeStyle;rounded=0;orthogonalLoop=1;jettySize=auto;html=1;exitX=1;exitY=0.5;exitDx=0;exitDy=0;entryX=0.5;entryY=1;entryDx=0;entryDy=0;" parent="1" source="Lbf4anZ4mkdeLENvVJDo-48" target="Lbf4anZ4mkdeLENvVJDo-27" edge="1">
          <mxGeometry relative="1" as="geometry" />
        </mxCell>
        <mxCell id="Lbf4anZ4mkdeLENvVJDo-48" value="&lt;pre style=&quot;font-size: 9pt ; text-align: left ; background-color: rgb(253 , 246 , 227) ; font-family: &amp;#34;menlo&amp;#34; , monospace&quot;&gt;&lt;pre style=&quot;font-size: 9pt ; font-family: &amp;#34;menlo&amp;#34; , monospace&quot;&gt;&lt;font color=&quot;#b58900&quot;&gt;CustomizedEventUploader&lt;br/&gt;&lt;/font&gt;&lt;font color=&quot;#657b83&quot;&gt;(线程池事件发送任务)&lt;/font&gt;&lt;/pre&gt;&lt;/pre&gt;" style="whiteSpace=wrap;html=1;rounded=1;strokeColor=#d79b00;fillColor=#ffe6cc;" parent="1" vertex="1">
          <mxGeometry x="850" y="-120" width="120" height="60" as="geometry" />
        </mxCell>
        <mxCell id="Lbf4anZ4mkdeLENvVJDo-50" value="根据阿波罗配置上报其他事件" style="text;html=1;align=center;verticalAlign=middle;resizable=0;points=[];autosize=1;strokeColor=none;" parent="1" vertex="1">
          <mxGeometry x="800" y="-150" width="170" height="20" as="geometry" />
        </mxCell>
        <mxCell id="Lbf4anZ4mkdeLENvVJDo-55" style="edgeStyle=orthogonalEdgeStyle;rounded=0;orthogonalLoop=1;jettySize=auto;html=1;exitX=1;exitY=0.5;exitDx=0;exitDy=0;" parent="1" source="Lbf4anZ4mkdeLENvVJDo-54" target="SWPEwqexWxuaSi2la6Ps-1" edge="1">
          <mxGeometry relative="1" as="geometry" />
        </mxCell>
        <mxCell id="Lbf4anZ4mkdeLENvVJDo-54" value="客户服务器" style="rounded=1;whiteSpace=wrap;html=1;fillColor=#dae8fc;strokeColor=#6c8ebf;" parent="1" vertex="1">
          <mxGeometry y="600" width="120" height="60" as="geometry" />
        </mxCell>
        <mxCell id="QW-dAD9UyNd5gf5BNb-T-18" style="edgeStyle=orthogonalEdgeStyle;rounded=0;jumpStyle=none;orthogonalLoop=1;jettySize=auto;html=1;entryX=0;entryY=0.5;entryDx=0;entryDy=0;shadow=0;exitX=1;exitY=0.5;exitDx=0;exitDy=0;exitPerimeter=0;" parent="1" source="SWPEwqexWxuaSi2la6Ps-7" target="QW-dAD9UyNd5gf5BNb-T-17" edge="1">
          <mxGeometry relative="1" as="geometry" />
        </mxCell>
        <mxCell id="3T0fu6l0v0uGzRSwxpDl-1" value="&lt;pre style=&quot;font-family: &amp;#34;menlo&amp;#34; , monospace ; font-size: 9pt&quot;&gt;&lt;span style=&quot;background-color: rgb(255 , 255 , 255)&quot;&gt;Mysql&lt;br&gt;conversion_data&lt;br&gt;(转化跟踪页面转化数)&lt;/span&gt;&lt;/pre&gt;" style="shape=cylinder3;whiteSpace=wrap;html=1;boundedLbl=1;backgroundOutline=1;size=15;fillColor=#ffe6cc;strokeColor=#d79b00;" parent="1" vertex="1">
          <mxGeometry x="1580" y="610" width="60" height="80" as="geometry" />
        </mxCell>
        <mxCell id="9EboDebHBBUFKv4gu6tB-1" value="&lt;pre style=&quot;font-family: &amp;#34;menlo&amp;#34; , monospace ; font-size: 9pt&quot;&gt;&lt;span style=&quot;background-color: rgb(255 , 255 , 255)&quot;&gt;Mysql&lt;br&gt;conversions&lt;br&gt;(转化跟踪)&lt;/span&gt;&lt;/pre&gt;" style="shape=cylinder3;whiteSpace=wrap;html=1;boundedLbl=1;backgroundOutline=1;size=15;fillColor=#ffe6cc;strokeColor=#d79b00;" parent="1" vertex="1">
          <mxGeometry x="450" y="900" width="60" height="80" as="geometry" />
        </mxCell>
        <mxCell id="sCTguvB0skkFPT9_5cat-1" value="&lt;pre style=&quot;font-family: &amp;#34;menlo&amp;#34; , monospace ; font-size: 9pt&quot;&gt;&lt;span style=&quot;background-color: rgb(255 , 255 , 255)&quot;&gt;Mysql&lt;br&gt;conversions_debug_log&lt;br&gt;(转化跟踪联调记录)&lt;/span&gt;&lt;/pre&gt;" style="shape=cylinder3;whiteSpace=wrap;html=1;boundedLbl=1;backgroundOutline=1;size=15;fillColor=#ffe6cc;strokeColor=#d79b00;" parent="1" vertex="1">
          <mxGeometry x="440" y="360" width="60" height="80" as="geometry" />
        </mxCell>
        <mxCell id="bJciuFKk10gyIbA084o_-5" value="&lt;pre style=&quot;background-color: rgb(253 , 246 , 227) ; font-family: &amp;#34;menlo&amp;#34; , monospace ; font-size: 9pt&quot;&gt;OcpxTracking&lt;br&gt;pivot(Druid)&lt;/pre&gt;" style="shape=cylinder3;whiteSpace=wrap;html=1;boundedLbl=1;backgroundOutline=1;size=15;" parent="1" vertex="1">
          <mxGeometry x="1470" y="-290" width="60" height="80" as="geometry" />
        </mxCell>
        <mxCell id="bJciuFKk10gyIbA084o_-9" style="edgeStyle=orthogonalEdgeStyle;rounded=0;orthogonalLoop=1;jettySize=auto;html=1;exitX=1;exitY=0.5;exitDx=0;exitDy=0;entryX=0;entryY=0.5;entryDx=0;entryDy=0;entryPerimeter=0;" parent="1" source="bJciuFKk10gyIbA084o_-8" target="bJciuFKk10gyIbA084o_-5" edge="1">
          <mxGeometry relative="1" as="geometry" />
        </mxCell>
        <mxCell id="bJciuFKk10gyIbA084o_-8" value="realtime-tranquility&lt;br&gt;(监控服务)&lt;br&gt;&lt;span style=&quot;background-color: rgb(253 , 246 , 227) ; color: rgb(101 , 123 , 131) ; font-family: &amp;#34;menlo&amp;#34; , monospace ; font-size: 9pt&quot;&gt;ConversionTrailEventService&lt;/span&gt;" style="rounded=1;whiteSpace=wrap;html=1;fillColor=#d5e8d4;strokeColor=#82b366;" parent="1" vertex="1">
          <mxGeometry x="1270" y="-280" width="120" height="60" as="geometry" />
        </mxCell>
        <mxCell id="j96rgMlCacX8J4bts-G6-4" style="edgeStyle=orthogonalEdgeStyle;rounded=0;orthogonalLoop=1;jettySize=auto;html=1;entryX=0;entryY=0.5;entryDx=0;entryDy=0;exitX=1;exitY=0.5;exitDx=0;exitDy=0;" parent="1" source="j96rgMlCacX8J4bts-G6-1" target="SWPEwqexWxuaSi2la6Ps-20" edge="1">
          <mxGeometry relative="1" as="geometry" />
        </mxCell>
        <mxCell id="j96rgMlCacX8J4bts-G6-1" value="&lt;font face=&quot;helvetica&quot;&gt;归因服务&lt;/font&gt;" style="rounded=1;whiteSpace=wrap;html=1;fillColor=#f8cecc;strokeColor=#b85450;" parent="1" vertex="1">
          <mxGeometry x="670" y="380" width="120" height="60" as="geometry" />
        </mxCell>
        <mxCell id="QW-dAD9UyNd5gf5BNb-T-15" value="列表页数据&lt;br&gt;(adid!=-1)" style="rounded=0;whiteSpace=wrap;html=1;fillColor=#fff2cc;strokeColor=#d6b656;" parent="1" vertex="1">
          <mxGeometry x="1770" y="460" width="120" height="60" as="geometry" />
        </mxCell>
        <mxCell id="QW-dAD9UyNd5gf5BNb-T-17" value="转化跟踪页总数&lt;br&gt;(adid=-1)&lt;br&gt;目前还没迁移&lt;br&gt;" style="rounded=0;whiteSpace=wrap;html=1;fillColor=#fff2cc;strokeColor=#d6b656;" parent="1" vertex="1">
          <mxGeometry x="1770" y="620" width="120" height="60" as="geometry" />
        </mxCell>
        <mxCell id="QW-dAD9UyNd5gf5BNb-T-32" style="edgeStyle=orthogonalEdgeStyle;rounded=0;jumpStyle=none;orthogonalLoop=1;jettySize=auto;html=1;entryX=0;entryY=0.82;entryDx=0;entryDy=0;entryPerimeter=0;shadow=0;" parent="1" source="QW-dAD9UyNd5gf5BNb-T-19" edge="1">
          <mxGeometry relative="1" as="geometry">
            <mxPoint x="390" y="760.8000000000002" as="targetPoint" />
          </mxGeometry>
        </mxCell>
        <mxCell id="tvblfOQqvs1aO30n7EI_-2" style="edgeStyle=orthogonalEdgeStyle;rounded=0;orthogonalLoop=1;jettySize=auto;html=1;exitX=0.5;exitY=1;exitDx=0;exitDy=0;" parent="1" source="QW-dAD9UyNd5gf5BNb-T-19" edge="1">
          <mxGeometry relative="1" as="geometry">
            <mxPoint x="920" y="440" as="targetPoint" />
            <Array as="points">
              <mxPoint x="220" y="850" />
              <mxPoint x="920" y="850" />
            </Array>
          </mxGeometry>
        </mxCell>
        <mxCell id="tvblfOQqvs1aO30n7EI_-3" value="带idid的直接导入归因结果" style="edgeLabel;html=1;align=center;verticalAlign=middle;resizable=0;points=[];" parent="tvblfOQqvs1aO30n7EI_-2" vertex="1" connectable="0">
          <mxGeometry x="-0.0983" y="-1" relative="1" as="geometry">
            <mxPoint as="offset" />
          </mxGeometry>
        </mxCell>
        <mxCell id="tvblfOQqvs1aO30n7EI_-9" style="edgeStyle=orthogonalEdgeStyle;rounded=0;orthogonalLoop=1;jettySize=auto;html=1;entryX=0;entryY=0.5;entryDx=0;entryDy=0;exitX=0.5;exitY=1;exitDx=0;exitDy=0;" parent="1" source="QW-dAD9UyNd5gf5BNb-T-19" target="tvblfOQqvs1aO30n7EI_-7" edge="1">
          <mxGeometry relative="1" as="geometry" />
        </mxCell>
        <mxCell id="tvblfOQqvs1aO30n7EI_-10" value="Xlogger" style="edgeLabel;html=1;align=center;verticalAlign=middle;resizable=0;points=[];" parent="tvblfOQqvs1aO30n7EI_-9" vertex="1" connectable="0">
          <mxGeometry x="0.5423" y="2" relative="1" as="geometry">
            <mxPoint as="offset" />
          </mxGeometry>
        </mxCell>
        <mxCell id="QW-dAD9UyNd5gf5BNb-T-19" value="Trail-service&lt;br&gt;/global/log" style="rounded=1;whiteSpace=wrap;html=1;fillColor=#ffe6cc;strokeColor=#d79b00;" parent="1" vertex="1">
          <mxGeometry x="160" y="730" width="120" height="60" as="geometry" />
        </mxCell>
        <mxCell id="QW-dAD9UyNd5gf5BNb-T-20" value="APi上报" style="text;html=1;align=center;verticalAlign=middle;resizable=0;points=[];autosize=1;strokeColor=#666666;fillColor=#f5f5f5;fontColor=#333333;" parent="1" vertex="1">
          <mxGeometry y="690" width="60" height="20" as="geometry" />
        </mxCell>
        <mxCell id="QW-dAD9UyNd5gf5BNb-T-21" style="edgeStyle=orthogonalEdgeStyle;rounded=0;orthogonalLoop=1;jettySize=auto;html=1;exitX=1;exitY=0.5;exitDx=0;exitDy=0;" parent="1" source="QW-dAD9UyNd5gf5BNb-T-22" target="QW-dAD9UyNd5gf5BNb-T-19" edge="1">
          <mxGeometry relative="1" as="geometry" />
        </mxCell>
        <mxCell id="QW-dAD9UyNd5gf5BNb-T-22" value="客户服务器" style="rounded=1;whiteSpace=wrap;html=1;fillColor=#dae8fc;strokeColor=#6c8ebf;" parent="1" vertex="1">
          <mxGeometry y="730" width="120" height="60" as="geometry" />
        </mxCell>
        <mxCell id="QW-dAD9UyNd5gf5BNb-T-25" value="" style="swimlane;startSize=0;fillColor=#dae8fc;strokeColor=#6c8ebf;" parent="1" vertex="1">
          <mxGeometry x="390" y="470" width="180" height="360" as="geometry" />
        </mxCell>
        <mxCell id="SWPEwqexWxuaSi2la6Ps-10" value="&lt;span style=&quot;color: rgb(0 , 0 , 0) ; font-family: &amp;#34;helvetica&amp;#34; ; font-size: 12px ; font-style: normal ; font-weight: 400 ; letter-spacing: normal ; text-align: center ; text-indent: 0px ; text-transform: none ; word-spacing: 0px ; background-color: rgb(248 , 249 , 250) ; display: inline ; float: none&quot;&gt;Kafka&lt;/span&gt;&lt;br style=&quot;color: rgb(0 , 0 , 0) ; font-family: &amp;#34;helvetica&amp;#34; ; font-size: 12px ; font-style: normal ; font-weight: 400 ; letter-spacing: normal ; text-align: center ; text-indent: 0px ; text-transform: none ; word-spacing: 0px ; background-color: rgb(248 , 249 , 250)&quot;&gt;&lt;span style=&quot;color: rgb(0 , 0 , 0) ; font-family: &amp;#34;helvetica&amp;#34; ; font-size: 12px ; font-style: normal ; font-weight: 400 ; letter-spacing: normal ; text-align: center ; text-indent: 0px ; text-transform: none ; word-spacing: 0px ; background-color: rgb(248 , 249 , 250) ; display: inline ; float: none&quot;&gt;(OCPX_TRAIL_EVENT)&lt;/span&gt;" style="rounded=1;whiteSpace=wrap;html=1;fillColor=#ffe6cc;strokeColor=#d79b00;" parent="QW-dAD9UyNd5gf5BNb-T-25" vertex="1">
          <mxGeometry x="24" y="20" width="120" height="60" as="geometry" />
        </mxCell>
        <mxCell id="SWPEwqexWxuaSi2la6Ps-11" value="&lt;meta charset=&quot;utf-8&quot;&gt;&lt;span style=&quot;color: rgb(0, 0, 0); font-family: helvetica; font-size: 12px; font-style: normal; font-weight: 400; letter-spacing: normal; text-align: center; text-indent: 0px; text-transform: none; word-spacing: 0px; background-color: rgb(248, 249, 250); display: inline; float: none;&quot;&gt;Kafka&lt;/span&gt;&lt;br style=&quot;color: rgb(0, 0, 0); font-family: helvetica; font-size: 12px; font-style: normal; font-weight: 400; letter-spacing: normal; text-align: center; text-indent: 0px; text-transform: none; word-spacing: 0px; background-color: rgb(248, 249, 250);&quot;&gt;&lt;span style=&quot;color: rgb(0, 0, 0); font-family: helvetica; font-size: 12px; font-style: normal; font-weight: 400; letter-spacing: normal; text-align: center; text-indent: 0px; text-transform: none; word-spacing: 0px; background-color: rgb(248, 249, 250); display: inline; float: none;&quot;&gt;(OCPX_CONVERSION)&lt;/span&gt;" style="rounded=1;whiteSpace=wrap;html=1;fillColor=#ffe6cc;strokeColor=#d79b00;" parent="QW-dAD9UyNd5gf5BNb-T-25" vertex="1">
          <mxGeometry x="24" y="120" width="120" height="60" as="geometry" />
        </mxCell>
        <mxCell id="HDLLfMBuL2vimwB7Rq-f-2" value="&lt;pre style=&quot;font-size: 9pt ; font-family: &amp;#34;menlo&amp;#34; , monospace&quot;&gt;&lt;span style=&quot;background-color: rgb(255 , 255 , 255)&quot;&gt;Lcs talos&lt;br&gt;(miuiads_ocpc_conversion_log)&lt;/span&gt;&lt;/pre&gt;" style="rounded=1;whiteSpace=wrap;html=1;align=center;fillColor=#ffe6cc;strokeColor=#d79b00;" parent="QW-dAD9UyNd5gf5BNb-T-25" vertex="1">
          <mxGeometry x="24" y="220" width="120" height="60" as="geometry" />
        </mxCell>
        <mxCell id="QW-dAD9UyNd5gf5BNb-T-33" value="数据回收" style="text;html=1;align=center;verticalAlign=middle;resizable=0;points=[];autosize=1;strokeColor=#9673a6;fillColor=#e1d5e7;" parent="1" vertex="1">
          <mxGeometry y="300" width="60" height="20" as="geometry" />
        </mxCell>
        <mxCell id="QW-dAD9UyNd5gf5BNb-T-38" style="edgeStyle=orthogonalEdgeStyle;rounded=0;jumpStyle=none;orthogonalLoop=1;jettySize=auto;html=1;shadow=0;" parent="1" source="QW-dAD9UyNd5gf5BNb-T-35" target="QW-dAD9UyNd5gf5BNb-T-37" edge="1">
          <mxGeometry relative="1" as="geometry" />
        </mxCell>
        <mxCell id="QW-dAD9UyNd5gf5BNb-T-42" style="edgeStyle=orthogonalEdgeStyle;rounded=0;jumpStyle=none;orthogonalLoop=1;jettySize=auto;html=1;shadow=0;entryX=0;entryY=0.5;entryDx=0;entryDy=0;entryPerimeter=0;" parent="1" source="QW-dAD9UyNd5gf5BNb-T-35" target="SWPEwqexWxuaSi2la6Ps-7" edge="1">
          <mxGeometry relative="1" as="geometry">
            <mxPoint x="1280" y="400" as="targetPoint" />
            <Array as="points">
              <mxPoint x="1260" y="410" />
              <mxPoint x="1450" y="410" />
              <mxPoint x="1450" y="490" />
            </Array>
          </mxGeometry>
        </mxCell>
        <mxCell id="QW-dAD9UyNd5gf5BNb-T-35" value="&lt;span style=&quot;color: rgb(0 , 0 , 0) ; font-family: &amp;#34;helvetica&amp;#34; ; font-size: 12px ; font-style: normal ; font-weight: 400 ; letter-spacing: normal ; text-indent: 0px ; text-transform: none ; word-spacing: 0px ; background-color: rgb(248 , 249 , 250) ; display: inline ; float: none&quot;&gt;&lt;pre style=&quot;font-size: 9pt ; background-color: rgb(253 , 246 , 227) ; color: rgb(101 , 123 , 131) ; font-family: &amp;#34;menlo&amp;#34; , monospace&quot;&gt;&lt;span style=&quot;color: rgb(203 , 75 , 22)&quot;&gt;emi-consumer&lt;br&gt;AdEmiConversionDataResultAggregator&lt;br/&gt;归因后的adid的数&lt;/span&gt;&lt;/pre&gt;&lt;/span&gt;" style="rounded=1;whiteSpace=wrap;html=1;fillColor=#ffe6cc;strokeColor=#d79b00;align=center;" parent="1" vertex="1">
          <mxGeometry x="1200" y="320" width="120" height="60" as="geometry" />
        </mxCell>
        <mxCell id="QW-dAD9UyNd5gf5BNb-T-37" value="Hive&lt;br&gt;&lt;span style=&quot;font-family: &amp;#34;menlo&amp;#34; , &amp;#34;monaco&amp;#34; , &amp;#34;courier new&amp;#34; , monospace ; text-align: left ; background-color: rgb(255 , 255 , 254)&quot;&gt;ocpx_conversion_attribution_result&lt;br&gt;&lt;/span&gt;消费归因的原始信息" style="shape=cylinder3;whiteSpace=wrap;html=1;boundedLbl=1;backgroundOutline=1;size=15;fillColor=#ffe6cc;strokeColor=#d79b00;" parent="1" vertex="1">
          <mxGeometry x="1580" y="310" width="60" height="80" as="geometry" />
        </mxCell>
        <mxCell id="QW-dAD9UyNd5gf5BNb-T-40" style="edgeStyle=orthogonalEdgeStyle;rounded=0;jumpStyle=none;orthogonalLoop=1;jettySize=auto;html=1;shadow=0;" parent="1" source="QW-dAD9UyNd5gf5BNb-T-39" edge="1">
          <mxGeometry relative="1" as="geometry">
            <mxPoint x="1580" y="490" as="targetPoint" />
          </mxGeometry>
        </mxCell>
        <mxCell id="QW-dAD9UyNd5gf5BNb-T-39" value="&lt;span style=&quot;color: rgb(0 , 0 , 0) ; font-family: &amp;#34;helvetica&amp;#34; ; font-size: 12px ; font-style: normal ; font-weight: 400 ; letter-spacing: normal ; text-indent: 0px ; text-transform: none ; word-spacing: 0px ; background-color: rgb(248 , 249 , 250) ; display: inline ; float: none&quot;&gt;&lt;pre style=&quot;font-size: 9pt ; background-color: rgb(253 , 246 , 227) ; color: rgb(101 , 123 , 131) ; font-family: &amp;#34;menlo&amp;#34; , monospace&quot;&gt;&lt;span style=&quot;color: rgb(203 , 75 , 22)&quot;&gt;emi-consumer&lt;br&gt;&lt;/span&gt;AdEmiConversionDataTotalNumAggregator&lt;br&gt;adid=-1的总数&lt;/pre&gt;&lt;/span&gt;" style="rounded=1;whiteSpace=wrap;html=1;fillColor=#ffe6cc;strokeColor=#d79b00;align=center;" parent="1" vertex="1">
          <mxGeometry x="1200" y="460" width="120" height="60" as="geometry" />
        </mxCell>
        <mxCell id="QW-dAD9UyNd5gf5BNb-T-43" style="edgeStyle=orthogonalEdgeStyle;rounded=0;jumpStyle=arc;orthogonalLoop=1;jettySize=auto;html=1;entryX=0;entryY=0.5;entryDx=0;entryDy=0;shadow=0;dashed=1;" parent="1" source="SWPEwqexWxuaSi2la6Ps-11" target="QW-dAD9UyNd5gf5BNb-T-39" edge="1">
          <mxGeometry relative="1" as="geometry" />
        </mxCell>
        <mxCell id="QW-dAD9UyNd5gf5BNb-T-49" style="edgeStyle=orthogonalEdgeStyle;rounded=0;jumpStyle=arc;orthogonalLoop=1;jettySize=auto;html=1;exitX=1;exitY=0.5;exitDx=0;exitDy=0;shadow=0;entryX=0;entryY=0.5;entryDx=0;entryDy=0;entryPerimeter=0;" parent="1" source="QW-dAD9UyNd5gf5BNb-T-45" target="3T0fu6l0v0uGzRSwxpDl-1" edge="1">
          <mxGeometry relative="1" as="geometry" />
        </mxCell>
        <mxCell id="QW-dAD9UyNd5gf5BNb-T-45" value="&lt;span style=&quot;color: rgb(0 , 0 , 0) ; font-family: &amp;#34;helvetica&amp;#34; ; font-size: 12px ; font-style: normal ; font-weight: 400 ; letter-spacing: normal ; text-indent: 0px ; text-transform: none ; word-spacing: 0px ; background-color: rgb(248 , 249 , 250) ; display: inline ; float: none&quot;&gt;&lt;pre style=&quot;font-size: 9pt ; background-color: rgb(253 , 246 , 227) ; color: rgb(101 , 123 , 131) ; font-family: &amp;#34;menlo&amp;#34; , monospace&quot;&gt;&lt;span style=&quot;color: rgb(203 , 75 , 22)&quot;&gt;emi-consumer&lt;br&gt;&lt;/span&gt;&lt;pre style=&quot;color: rgb(0 , 0 , 0) ; font-size: 9pt ; background-color: rgb(248 , 249 , 250) ; font-family: &amp;#34;menlo&amp;#34; , monospace&quot;&gt;&lt;span style=&quot;background-color: rgb(255 , 255 , 255)&quot;&gt;ConversionTotalNumConsumer&lt;/span&gt;&lt;/pre&gt;&lt;/pre&gt;&lt;/span&gt;" style="rounded=1;whiteSpace=wrap;html=1;fillColor=#ffe6cc;strokeColor=#d79b00;align=center;" parent="1" vertex="1">
          <mxGeometry x="1200" y="710" width="120" height="60" as="geometry" />
        </mxCell>
        <mxCell id="QW-dAD9UyNd5gf5BNb-T-52" style="edgeStyle=orthogonalEdgeStyle;rounded=0;jumpStyle=arc;orthogonalLoop=1;jettySize=auto;html=1;exitX=1;exitY=0.5;exitDx=0;exitDy=0;shadow=0;" parent="1" source="QW-dAD9UyNd5gf5BNb-T-46" target="3T0fu6l0v0uGzRSwxpDl-1" edge="1">
          <mxGeometry relative="1" as="geometry" />
        </mxCell>
        <mxCell id="QW-dAD9UyNd5gf5BNb-T-46" value="&lt;span style=&quot;color: rgb(0 , 0 , 0) ; font-family: &amp;#34;helvetica&amp;#34; ; font-size: 12px ; font-style: normal ; font-weight: 400 ; letter-spacing: normal ; text-indent: 0px ; text-transform: none ; word-spacing: 0px ; background-color: rgb(248 , 249 , 250) ; display: inline ; float: none&quot;&gt;&lt;pre style=&quot;font-size: 9pt ; background-color: rgb(253 , 246 , 227) ; color: rgb(101 , 123 , 131) ; font-family: &amp;#34;menlo&amp;#34; , monospace&quot;&gt;&lt;span style=&quot;color: rgb(203 , 75 , 22)&quot;&gt;emi-consumer&lt;/span&gt;&lt;/pre&gt;&lt;pre style=&quot;font-size: 9pt ; background-color: rgb(253 , 246 , 227) ; color: rgb(101 , 123 , 131) ; font-family: &amp;#34;menlo&amp;#34; , monospace&quot;&gt;CONVERSION_ATTRIBUTION_RESULT&lt;/pre&gt;&lt;/span&gt;" style="rounded=1;whiteSpace=wrap;html=1;fillColor=#ffe6cc;strokeColor=#d79b00;align=center;" parent="1" vertex="1">
          <mxGeometry x="1200" y="590" width="120" height="60" as="geometry" />
        </mxCell>
        <mxCell id="QW-dAD9UyNd5gf5BNb-T-51" style="edgeStyle=orthogonalEdgeStyle;rounded=0;jumpStyle=arc;orthogonalLoop=1;jettySize=auto;html=1;shadow=0;dashed=1;" parent="1" source="SWPEwqexWxuaSi2la6Ps-11" target="QW-dAD9UyNd5gf5BNb-T-46" edge="1">
          <mxGeometry relative="1" as="geometry" />
        </mxCell>
        <mxCell id="HDLLfMBuL2vimwB7Rq-f-4" style="edgeStyle=orthogonalEdgeStyle;rounded=0;orthogonalLoop=1;jettySize=auto;html=1;entryX=0;entryY=0.5;entryDx=0;entryDy=0;entryPerimeter=0;dashed=1;" parent="1" source="SWPEwqexWxuaSi2la6Ps-15" target="SWPEwqexWxuaSi2la6Ps-17" edge="1">
          <mxGeometry relative="1" as="geometry" />
        </mxCell>
        <mxCell id="SWPEwqexWxuaSi2la6Ps-17" value="Hive&lt;br&gt;(&lt;span style=&quot;background-color: rgb(255 , 255 , 254) ; font-family: &amp;#34;menlo&amp;#34; , &amp;#34;monaco&amp;#34; , &amp;#34;courier new&amp;#34; , monospace&quot;&gt;miuiads.conversion_trail_api_statistic&lt;/span&gt;&lt;span&gt;)&lt;br&gt;统计方案原始日志&lt;br&gt;&lt;/span&gt;" style="shape=cylinder3;whiteSpace=wrap;html=1;boundedLbl=1;backgroundOutline=1;size=15;fillColor=#ffe6cc;strokeColor=#d79b00;" parent="1" vertex="1">
          <mxGeometry x="770" y="250" width="60" height="80" as="geometry" />
        </mxCell>
        <mxCell id="SWPEwqexWxuaSi2la6Ps-15" value="&lt;span style=&quot;font-size: 9pt ; background-color: rgb(255 , 255 , 255)&quot;&gt;Xlogger&lt;br&gt;&lt;font face=&quot;Menlo, monospace&quot;&gt;(miuiads_conversion_trail_api_statistic)&lt;/font&gt;&lt;/span&gt;" style="rounded=1;whiteSpace=wrap;html=1;fillColor=#ffe6cc;strokeColor=#d79b00;" parent="1" vertex="1">
          <mxGeometry x="440" y="260" width="120" height="60" as="geometry" />
        </mxCell>
        <mxCell id="tvblfOQqvs1aO30n7EI_-7" value="Hive&lt;br&gt;(&lt;span style=&quot;color: rgb(23 , 43 , 77) ; font-family: , , &amp;#34;segoe ui&amp;#34; , &amp;#34;roboto&amp;#34; , &amp;#34;oxygen&amp;#34; , &amp;#34;ubuntu&amp;#34; , &amp;#34;fira sans&amp;#34; , &amp;#34;droid sans&amp;#34; , &amp;#34;helvetica neue&amp;#34; , sans-serif ; font-size: 14px ; background-color: rgb(255 , 255 , 255)&quot;&gt;conversion_trail&lt;/span&gt;)&lt;br&gt;上报原始日志" style="shape=cylinder;whiteSpace=wrap;html=1;boundedLbl=1;backgroundOutline=1;rounded=1;strokeColor=#d79b00;fillColor=#ffe6cc;" parent="1" vertex="1">
          <mxGeometry x="440" y="1030" width="60" height="80" as="geometry" />
        </mxCell>
        <mxCell id="tvblfOQqvs1aO30n7EI_-11" value="Hive&lt;br&gt;(&lt;font color=&quot;#172b4d&quot;&gt;&lt;span style=&quot;font-size: 14px&quot;&gt;ocpc_conversion_log&lt;/span&gt;&lt;/font&gt;)&lt;br&gt;发送到归因的总日志" style="shape=cylinder;whiteSpace=wrap;html=1;boundedLbl=1;backgroundOutline=1;rounded=1;strokeColor=#d79b00;fillColor=#ffe6cc;" parent="1" vertex="1">
          <mxGeometry x="670" y="680" width="60" height="80" as="geometry" />
        </mxCell>
        <mxCell id="tvblfOQqvs1aO30n7EI_-12" style="edgeStyle=orthogonalEdgeStyle;rounded=0;orthogonalLoop=1;jettySize=auto;html=1;" parent="1" source="HDLLfMBuL2vimwB7Rq-f-2" target="tvblfOQqvs1aO30n7EI_-11" edge="1">
          <mxGeometry relative="1" as="geometry" />
        </mxCell>
      </root>
    </mxGraphModel>
  </diagram>
  <diagram id="JDvjDU0jgrIfWZ_2oggv" name="线索API上报数据流">
    <mxGraphModel dx="1595" dy="800" grid="1" gridSize="10" guides="1" tooltips="1" connect="1" arrows="1" fold="1" page="1" pageScale="1" pageWidth="827" pageHeight="1169" math="0" shadow="0">
      <root>
        <mxCell id="hTVwWfpE0Fw7kJ8ur4ZS-0" />
        <mxCell id="hTVwWfpE0Fw7kJ8ur4ZS-1" parent="hTVwWfpE0Fw7kJ8ur4ZS-0" />
        <mxCell id="hTVwWfpE0Fw7kJ8ur4ZS-5" value="" style="edgeStyle=orthogonalEdgeStyle;rounded=0;orthogonalLoop=1;jettySize=auto;html=1;" parent="hTVwWfpE0Fw7kJ8ur4ZS-1" source="hTVwWfpE0Fw7kJ8ur4ZS-2" target="hTVwWfpE0Fw7kJ8ur4ZS-4" edge="1">
          <mxGeometry relative="1" as="geometry" />
        </mxCell>
        <mxCell id="hTVwWfpE0Fw7kJ8ur4ZS-15" value="下发" style="edgeLabel;html=1;align=center;verticalAlign=middle;resizable=0;points=[];" parent="hTVwWfpE0Fw7kJ8ur4ZS-5" vertex="1" connectable="0">
          <mxGeometry x="0.1125" relative="1" as="geometry">
            <mxPoint as="offset" />
          </mxGeometry>
        </mxCell>
        <mxCell id="hTVwWfpE0Fw7kJ8ur4ZS-2" value="ad-web&lt;br&gt;(页面创建转化跟踪)" style="rounded=1;whiteSpace=wrap;html=1;fillColor=#ffe6cc;strokeColor=#d79b00;" parent="hTVwWfpE0Fw7kJ8ur4ZS-1" vertex="1">
          <mxGeometry x="90" y="140" width="120" height="60" as="geometry" />
        </mxCell>
        <mxCell id="hTVwWfpE0Fw7kJ8ur4ZS-34" style="edgeStyle=orthogonalEdgeStyle;rounded=0;orthogonalLoop=1;jettySize=auto;html=1;exitX=1;exitY=0.5;exitDx=0;exitDy=0;entryX=0;entryY=0.5;entryDx=0;entryDy=0;" parent="hTVwWfpE0Fw7kJ8ur4ZS-1" source="hTVwWfpE0Fw7kJ8ur4ZS-4" target="hTVwWfpE0Fw7kJ8ur4ZS-32" edge="1">
          <mxGeometry relative="1" as="geometry" />
        </mxCell>
        <mxCell id="hTVwWfpE0Fw7kJ8ur4ZS-4" value="select&lt;br&gt;(下发的时候拼接参数)" style="whiteSpace=wrap;html=1;rounded=1;strokeColor=#d79b00;fillColor=#ffe6cc;" parent="hTVwWfpE0Fw7kJ8ur4ZS-1" vertex="1">
          <mxGeometry x="290" y="140" width="120" height="60" as="geometry" />
        </mxCell>
        <mxCell id="hTVwWfpE0Fw7kJ8ur4ZS-7" value="https://tieba.baidu.com/index.html?logExtra=__LEGOEX__&amp;amp;conversionId=635&amp;amp;webConversionId=183" style="text;whiteSpace=wrap;html=1;" parent="hTVwWfpE0Fw7kJ8ur4ZS-1" vertex="1">
          <mxGeometry x="220" y="90" width="390" height="30" as="geometry" />
        </mxCell>
        <mxCell id="hTVwWfpE0Fw7kJ8ur4ZS-14" style="edgeStyle=orthogonalEdgeStyle;rounded=0;orthogonalLoop=1;jettySize=auto;html=1;exitX=0.5;exitY=1;exitDx=0;exitDy=0;entryX=0.5;entryY=0;entryDx=0;entryDy=0;" parent="hTVwWfpE0Fw7kJ8ur4ZS-1" source="hTVwWfpE0Fw7kJ8ur4ZS-8" target="hTVwWfpE0Fw7kJ8ur4ZS-10" edge="1">
          <mxGeometry relative="1" as="geometry" />
        </mxCell>
        <mxCell id="hTVwWfpE0Fw7kJ8ur4ZS-17" value="上报数据" style="edgeLabel;html=1;align=center;verticalAlign=middle;resizable=0;points=[];" parent="hTVwWfpE0Fw7kJ8ur4ZS-14" vertex="1" connectable="0">
          <mxGeometry x="-0.2134" y="3" relative="1" as="geometry">
            <mxPoint as="offset" />
          </mxGeometry>
        </mxCell>
        <mxCell id="hTVwWfpE0Fw7kJ8ur4ZS-8" value="广告主落地页检测&lt;br&gt;服务器" style="whiteSpace=wrap;html=1;rounded=1;strokeColor=#6c8ebf;fillColor=#dae8fc;" parent="hTVwWfpE0Fw7kJ8ur4ZS-1" vertex="1">
          <mxGeometry x="630" y="250" width="120" height="60" as="geometry" />
        </mxCell>
        <mxCell id="hTVwWfpE0Fw7kJ8ur4ZS-12" value="" style="edgeStyle=orthogonalEdgeStyle;rounded=0;orthogonalLoop=1;jettySize=auto;html=1;" parent="hTVwWfpE0Fw7kJ8ur4ZS-1" source="hTVwWfpE0Fw7kJ8ur4ZS-10" target="hTVwWfpE0Fw7kJ8ur4ZS-11" edge="1">
          <mxGeometry relative="1" as="geometry" />
        </mxCell>
        <mxCell id="hTVwWfpE0Fw7kJ8ur4ZS-21" value="" style="edgeStyle=orthogonalEdgeStyle;rounded=0;orthogonalLoop=1;jettySize=auto;html=1;" parent="hTVwWfpE0Fw7kJ8ur4ZS-1" source="hTVwWfpE0Fw7kJ8ur4ZS-10" target="hTVwWfpE0Fw7kJ8ur4ZS-11" edge="1">
          <mxGeometry relative="1" as="geometry" />
        </mxCell>
        <mxCell id="hTVwWfpE0Fw7kJ8ur4ZS-24" style="edgeStyle=orthogonalEdgeStyle;rounded=0;orthogonalLoop=1;jettySize=auto;html=1;entryX=1;entryY=0.5;entryDx=0;entryDy=0;" parent="hTVwWfpE0Fw7kJ8ur4ZS-1" source="hTVwWfpE0Fw7kJ8ur4ZS-10" target="hTVwWfpE0Fw7kJ8ur4ZS-23" edge="1">
          <mxGeometry relative="1" as="geometry" />
        </mxCell>
        <mxCell id="hTVwWfpE0Fw7kJ8ur4ZS-10" value="lego-service&lt;br&gt;(接受广告主上报数据)&lt;br&gt;site.e.mi.com/conversionLog" style="rounded=1;whiteSpace=wrap;html=1;fillColor=#ffe6cc;strokeColor=#d79b00;" parent="hTVwWfpE0Fw7kJ8ur4ZS-1" vertex="1">
          <mxGeometry x="630" y="350" width="120" height="60" as="geometry" />
        </mxCell>
        <mxCell id="hTVwWfpE0Fw7kJ8ur4ZS-11" value="&lt;pre style=&quot;background-color: #fdf6e3 ; color: #657b83 ; font-family: &amp;#34;menlo&amp;#34; , monospace ; font-size: 9.0pt&quot;&gt;&lt;span style=&quot;background-color: #eee8d5&quot;&gt;site_effect&lt;br&gt;网页数据&lt;br&gt;(Mysql)&lt;/span&gt;&lt;/pre&gt;" style="shape=cylinder;whiteSpace=wrap;html=1;boundedLbl=1;backgroundOutline=1;rounded=1;strokeColor=#d79b00;fillColor=#ffe6cc;" parent="hTVwWfpE0Fw7kJ8ur4ZS-1" vertex="1">
          <mxGeometry x="480" y="260" width="60" height="80" as="geometry" />
        </mxCell>
        <mxCell id="hTVwWfpE0Fw7kJ8ur4ZS-26" value="" style="edgeStyle=orthogonalEdgeStyle;rounded=0;orthogonalLoop=1;jettySize=auto;html=1;" parent="hTVwWfpE0Fw7kJ8ur4ZS-1" source="hTVwWfpE0Fw7kJ8ur4ZS-23" target="hTVwWfpE0Fw7kJ8ur4ZS-25" edge="1">
          <mxGeometry relative="1" as="geometry" />
        </mxCell>
        <mxCell id="hTVwWfpE0Fw7kJ8ur4ZS-23" value="OCPX_CONVERSION&lt;br&gt;(kafka)" style="rounded=1;whiteSpace=wrap;html=1;fillColor=#ffe6cc;strokeColor=#d79b00;" parent="hTVwWfpE0Fw7kJ8ur4ZS-1" vertex="1">
          <mxGeometry x="280" y="350" width="120" height="60" as="geometry" />
        </mxCell>
        <mxCell id="nVQkIlCDECzry_v0Ls3Q-1" value="" style="edgeStyle=orthogonalEdgeStyle;rounded=0;orthogonalLoop=1;jettySize=auto;html=1;" parent="hTVwWfpE0Fw7kJ8ur4ZS-1" source="hTVwWfpE0Fw7kJ8ur4ZS-25" target="nVQkIlCDECzry_v0Ls3Q-0" edge="1">
          <mxGeometry relative="1" as="geometry" />
        </mxCell>
        <mxCell id="hTVwWfpE0Fw7kJ8ur4ZS-25" value="归因服务" style="whiteSpace=wrap;html=1;rounded=1;strokeColor=#82b366;fillColor=#d5e8d4;" parent="hTVwWfpE0Fw7kJ8ur4ZS-1" vertex="1">
          <mxGeometry x="100" y="350" width="120" height="60" as="geometry" />
        </mxCell>
        <mxCell id="hTVwWfpE0Fw7kJ8ur4ZS-36" style="edgeStyle=orthogonalEdgeStyle;rounded=0;orthogonalLoop=1;jettySize=auto;html=1;" parent="hTVwWfpE0Fw7kJ8ur4ZS-1" source="hTVwWfpE0Fw7kJ8ur4ZS-29" target="hTVwWfpE0Fw7kJ8ur4ZS-8" edge="1">
          <mxGeometry relative="1" as="geometry" />
        </mxCell>
        <mxCell id="hTVwWfpE0Fw7kJ8ur4ZS-37" value="宏替换&lt;span style=&quot;font-size: 12px ; text-align: left ; background-color: rgb(248 , 249 , 250)&quot;&gt;__LEGOEX__&lt;/span&gt;" style="edgeLabel;html=1;align=center;verticalAlign=middle;resizable=0;points=[];" parent="hTVwWfpE0Fw7kJ8ur4ZS-36" vertex="1" connectable="0">
          <mxGeometry x="-0.2" y="-1" relative="1" as="geometry">
            <mxPoint as="offset" />
          </mxGeometry>
        </mxCell>
        <mxCell id="hTVwWfpE0Fw7kJ8ur4ZS-29" value="广告SDK&lt;br&gt;(媒体)" style="whiteSpace=wrap;html=1;rounded=1;strokeColor=#d79b00;fillColor=#ffe6cc;" parent="hTVwWfpE0Fw7kJ8ur4ZS-1" vertex="1">
          <mxGeometry x="630" y="140" width="120" height="60" as="geometry" />
        </mxCell>
        <mxCell id="hTVwWfpE0Fw7kJ8ur4ZS-33" style="edgeStyle=orthogonalEdgeStyle;rounded=0;orthogonalLoop=1;jettySize=auto;html=1;exitX=1;exitY=0.5;exitDx=0;exitDy=0;entryX=0;entryY=0.5;entryDx=0;entryDy=0;" parent="hTVwWfpE0Fw7kJ8ur4ZS-1" source="hTVwWfpE0Fw7kJ8ur4ZS-32" target="hTVwWfpE0Fw7kJ8ur4ZS-29" edge="1">
          <mxGeometry relative="1" as="geometry" />
        </mxCell>
        <mxCell id="hTVwWfpE0Fw7kJ8ur4ZS-35" value="填充广告" style="edgeLabel;html=1;align=center;verticalAlign=middle;resizable=0;points=[];" parent="hTVwWfpE0Fw7kJ8ur4ZS-33" vertex="1" connectable="0">
          <mxGeometry x="0.1133" y="-1" relative="1" as="geometry">
            <mxPoint as="offset" />
          </mxGeometry>
        </mxCell>
        <mxCell id="hTVwWfpE0Fw7kJ8ur4ZS-32" value="DE&lt;br&gt;(投放引擎)" style="whiteSpace=wrap;html=1;rounded=1;strokeColor=#d79b00;fillColor=#ffe6cc;" parent="hTVwWfpE0Fw7kJ8ur4ZS-1" vertex="1">
          <mxGeometry x="440" y="140" width="120" height="60" as="geometry" />
        </mxCell>
        <mxCell id="nVQkIlCDECzry_v0Ls3Q-0" value="emi web展示" style="rounded=1;whiteSpace=wrap;html=1;fillColor=#ffe6cc;strokeColor=#d79b00;" parent="hTVwWfpE0Fw7kJ8ur4ZS-1" vertex="1">
          <mxGeometry x="100" y="555" width="120" height="60" as="geometry" />
        </mxCell>
      </root>
    </mxGraphModel>
  </diagram>
  <diagram id="MEMikZ74fBBKv9IVO4A7" name="乐高转化数据流">
    <mxGraphModel dx="1595" dy="800" grid="1" gridSize="10" guides="1" tooltips="1" connect="1" arrows="1" fold="1" page="1" pageScale="1" pageWidth="827" pageHeight="1169" math="0" shadow="0">
      <root>
        <mxCell id="_Hk3gnxYa_L1gfTy5BDZ-0" />
        <mxCell id="_Hk3gnxYa_L1gfTy5BDZ-1" parent="_Hk3gnxYa_L1gfTy5BDZ-0" />
        <mxCell id="PDu0BkoMG_VEERVW_xgo-0" value="乐高" style="text;html=1;align=center;verticalAlign=middle;resizable=0;points=[];autosize=1;strokeColor=#666666;fillColor=#f5f5f5;fontColor=#333333;" parent="_Hk3gnxYa_L1gfTy5BDZ-1" vertex="1">
          <mxGeometry x="30" y="210" width="40" height="20" as="geometry" />
        </mxCell>
      </root>
    </mxGraphModel>
  </diagram>
  <diagram id="p-cVaCrvRrE-7bbGLBqU" name="APP转化联调">
    <mxGraphModel dx="1595" dy="800" grid="1" gridSize="10" guides="1" tooltips="1" connect="1" arrows="1" fold="1" page="1" pageScale="1" pageWidth="827" pageHeight="1169" math="0" shadow="0">
      <root>
        <mxCell id="XPmO9QiCZzm-8j1MYTTu-0" />
        <mxCell id="XPmO9QiCZzm-8j1MYTTu-1" parent="XPmO9QiCZzm-8j1MYTTu-0" />
        <mxCell id="p-qv0VDVRc_q0oxrquAZ-2" style="edgeStyle=orthogonalEdgeStyle;rounded=0;orthogonalLoop=1;jettySize=auto;html=1;exitX=1;exitY=0.5;exitDx=0;exitDy=0;" parent="XPmO9QiCZzm-8j1MYTTu-1" source="p-qv0VDVRc_q0oxrquAZ-0" target="p-qv0VDVRc_q0oxrquAZ-1" edge="1">
          <mxGeometry relative="1" as="geometry" />
        </mxCell>
        <mxCell id="p-qv0VDVRc_q0oxrquAZ-3" value="/conversion/debug&lt;br&gt;(oaid)" style="edgeLabel;html=1;align=center;verticalAlign=middle;resizable=0;points=[];" parent="p-qv0VDVRc_q0oxrquAZ-2" vertex="1" connectable="0">
          <mxGeometry x="-0.2305" relative="1" as="geometry">
            <mxPoint as="offset" />
          </mxGeometry>
        </mxCell>
        <mxCell id="p-qv0VDVRc_q0oxrquAZ-0" value="ad-web-ui" style="rounded=1;whiteSpace=wrap;html=1;fillColor=#dae8fc;strokeColor=#6c8ebf;" parent="XPmO9QiCZzm-8j1MYTTu-1" vertex="1">
          <mxGeometry x="90" y="220" width="120" height="60" as="geometry" />
        </mxCell>
        <mxCell id="p-qv0VDVRc_q0oxrquAZ-6" style="edgeStyle=orthogonalEdgeStyle;rounded=0;orthogonalLoop=1;jettySize=auto;html=1;entryX=0;entryY=0.5;entryDx=0;entryDy=0;" parent="XPmO9QiCZzm-8j1MYTTu-1" source="p-qv0VDVRc_q0oxrquAZ-1" target="p-qv0VDVRc_q0oxrquAZ-4" edge="1">
          <mxGeometry relative="1" as="geometry" />
        </mxCell>
        <mxCell id="HHyKIBARV1JASqaafnaa-0" value="&lt;span style=&quot;font-size: 12px ; background-color: rgb(248 , 249 , 250)&quot;&gt;FeedbackUrl&lt;br&gt;宏替换&lt;br&gt;&lt;/span&gt;" style="edgeLabel;html=1;align=center;verticalAlign=middle;resizable=0;points=[];" parent="p-qv0VDVRc_q0oxrquAZ-6" vertex="1" connectable="0">
          <mxGeometry x="0.0949" y="2" relative="1" as="geometry">
            <mxPoint as="offset" />
          </mxGeometry>
        </mxCell>
        <mxCell id="p-qv0VDVRc_q0oxrquAZ-1" value="ad-web" style="rounded=1;whiteSpace=wrap;html=1;fillColor=#dae8fc;strokeColor=#6c8ebf;" parent="XPmO9QiCZzm-8j1MYTTu-1" vertex="1">
          <mxGeometry x="360" y="220" width="120" height="60" as="geometry" />
        </mxCell>
        <mxCell id="p-qv0VDVRc_q0oxrquAZ-8" style="edgeStyle=orthogonalEdgeStyle;rounded=0;orthogonalLoop=1;jettySize=auto;html=1;exitX=1;exitY=0.5;exitDx=0;exitDy=0;entryX=0;entryY=0.5;entryDx=0;entryDy=0;" parent="XPmO9QiCZzm-8j1MYTTu-1" source="p-qv0VDVRc_q0oxrquAZ-4" target="p-qv0VDVRc_q0oxrquAZ-7" edge="1">
          <mxGeometry relative="1" as="geometry" />
        </mxCell>
        <mxCell id="p-qv0VDVRc_q0oxrquAZ-9" value="/api/callback" style="edgeLabel;html=1;align=center;verticalAlign=middle;resizable=0;points=[];" parent="p-qv0VDVRc_q0oxrquAZ-8" vertex="1" connectable="0">
          <mxGeometry x="-0.1481" relative="1" as="geometry">
            <mxPoint as="offset" />
          </mxGeometry>
        </mxCell>
        <mxCell id="p-qv0VDVRc_q0oxrquAZ-4" value="广告主服务端" style="rounded=1;whiteSpace=wrap;html=1;fillColor=#ffe6cc;strokeColor=#d79b00;" parent="XPmO9QiCZzm-8j1MYTTu-1" vertex="1">
          <mxGeometry x="610" y="220" width="120" height="60" as="geometry" />
        </mxCell>
        <mxCell id="By81XJgwp2gKXwbBH94Q-2" value="" style="edgeStyle=orthogonalEdgeStyle;rounded=0;orthogonalLoop=1;jettySize=auto;html=1;" parent="XPmO9QiCZzm-8j1MYTTu-1" source="p-qv0VDVRc_q0oxrquAZ-7" target="By81XJgwp2gKXwbBH94Q-1" edge="1">
          <mxGeometry relative="1" as="geometry" />
        </mxCell>
        <mxCell id="By81XJgwp2gKXwbBH94Q-3" value="同步写一条oaid记录" style="edgeLabel;html=1;align=center;verticalAlign=middle;resizable=0;points=[];" parent="By81XJgwp2gKXwbBH94Q-2" vertex="1" connectable="0">
          <mxGeometry x="-0.0952" y="4" relative="1" as="geometry">
            <mxPoint x="-4" y="14" as="offset" />
          </mxGeometry>
        </mxCell>
        <mxCell id="p-qv0VDVRc_q0oxrquAZ-7" value="trail" style="rounded=1;whiteSpace=wrap;html=1;fillColor=#dae8fc;strokeColor=#6c8ebf;" parent="XPmO9QiCZzm-8j1MYTTu-1" vertex="1">
          <mxGeometry x="827" y="220" width="120" height="60" as="geometry" />
        </mxCell>
        <mxCell id="WyUNLVd8uV5JDuugFaAd-0" value="ad-web" style="rounded=1;whiteSpace=wrap;html=1;fillColor=#dae8fc;strokeColor=#6c8ebf;" parent="XPmO9QiCZzm-8j1MYTTu-1" vertex="1">
          <mxGeometry x="370" y="525" width="120" height="60" as="geometry" />
        </mxCell>
        <mxCell id="WyUNLVd8uV5JDuugFaAd-2" style="edgeStyle=orthogonalEdgeStyle;rounded=0;orthogonalLoop=1;jettySize=auto;html=1;exitX=1;exitY=0.5;exitDx=0;exitDy=0;" parent="XPmO9QiCZzm-8j1MYTTu-1" source="WyUNLVd8uV5JDuugFaAd-1" target="WyUNLVd8uV5JDuugFaAd-0" edge="1">
          <mxGeometry relative="1" as="geometry">
            <Array as="points">
              <mxPoint x="210" y="550" />
            </Array>
          </mxGeometry>
        </mxCell>
        <mxCell id="WyUNLVd8uV5JDuugFaAd-4" value="/conversion/callback&lt;br&gt;轮询" style="edgeLabel;html=1;align=center;verticalAlign=middle;resizable=0;points=[];" parent="WyUNLVd8uV5JDuugFaAd-2" vertex="1" connectable="0">
          <mxGeometry x="-0.1312" y="-2" relative="1" as="geometry">
            <mxPoint as="offset" />
          </mxGeometry>
        </mxCell>
        <mxCell id="WyUNLVd8uV5JDuugFaAd-1" value="ad-web-ui" style="rounded=1;whiteSpace=wrap;html=1;fillColor=#dae8fc;strokeColor=#6c8ebf;" parent="XPmO9QiCZzm-8j1MYTTu-1" vertex="1">
          <mxGeometry x="90" y="525" width="120" height="60" as="geometry" />
        </mxCell>
        <mxCell id="jV1ZwDUeLWHzURAciK9O-0" value="API统计联调" style="text;html=1;align=center;verticalAlign=middle;resizable=0;points=[];autosize=1;strokeColor=none;" parent="XPmO9QiCZzm-8j1MYTTu-1" vertex="1">
          <mxGeometry x="90" y="190" width="80" height="20" as="geometry" />
        </mxCell>
        <mxCell id="By81XJgwp2gKXwbBH94Q-5" style="edgeStyle=orthogonalEdgeStyle;rounded=0;orthogonalLoop=1;jettySize=auto;html=1;exitX=0;exitY=0.5;exitDx=0;exitDy=0;entryX=1;entryY=0.5;entryDx=0;entryDy=0;" parent="XPmO9QiCZzm-8j1MYTTu-1" source="By81XJgwp2gKXwbBH94Q-1" target="WyUNLVd8uV5JDuugFaAd-0" edge="1">
          <mxGeometry relative="1" as="geometry" />
        </mxCell>
        <mxCell id="By81XJgwp2gKXwbBH94Q-6" value="&lt;span style=&quot;background-color: rgb(204 , 255 , 204)&quot;&gt;如果联调成功。&lt;br&gt;阶段为oaid进入联调imei阶段，&lt;br&gt;阶段为imei则更新conversions为成功&lt;br&gt;&lt;/span&gt;" style="edgeLabel;html=1;align=center;verticalAlign=middle;resizable=0;points=[];" parent="By81XJgwp2gKXwbBH94Q-5" vertex="1" connectable="0">
          <mxGeometry x="0.01" relative="1" as="geometry">
            <mxPoint x="-12" as="offset" />
          </mxGeometry>
        </mxCell>
        <mxCell id="By81XJgwp2gKXwbBH94Q-1" value="conversion_debug_log&lt;br&gt;(Mysql)" style="shape=cylinder;whiteSpace=wrap;html=1;boundedLbl=1;backgroundOutline=1;rounded=1;strokeColor=#6c8ebf;fillColor=#dae8fc;" parent="XPmO9QiCZzm-8j1MYTTu-1" vertex="1">
          <mxGeometry x="857" y="515" width="60" height="80" as="geometry" />
        </mxCell>
      </root>
    </mxGraphModel>
  </diagram>
</mxfile>
